<?xml version="1.0" encoding="utf-8"?>
<!-- Generator: Adobe Illustrator 26.3.1, SVG Export Plug-In . SVG Version: 6.00 Build 0)  -->
<svg version="1.1" id="Artwork" xmlns="http://www.w3.org/2000/svg" xmlns:xlink="http://www.w3.org/1999/xlink" x="0px" y="0px"
	 width="246.209px" height="64.213px" viewBox="0 0 246.209 64.213" style="enable-background:new 0 0 246.209 64.213;"
	 xml:space="preserve">
<g>
	<g id="XMLID_75_">
		<path id="XMLID_76_" d="M51.475,46.371c-0.079,0.225-1.327,4.537-4.378,8.99c-2.634,3.85-5.37,7.691-9.678,7.769
			c-4.233,0.078-5.594-2.512-10.431-2.512c-4.842,0-6.356,2.434-10.358,2.59c-4.159,0.156-7.327-4.164-9.982-7.998
			c-5.431-7.852-9.574-22.184-4.003-31.852c2.761-4.807,7.71-7.848,13.077-7.926c4.086-0.078,7.936,2.744,10.435,2.744
			c2.497,0,7.177-3.394,12.1-2.898c2.06,0.088,7.845,0.832,11.562,6.271c-0.297,0.188-6.905,4.033-6.833,12.031
			C43.072,43.15,51.38,46.33,51.475,46.371 M35.03,10.092C37.244,7.418,38.728,3.699,38.32,0c-3.18,0.117-7.033,2.117-9.312,4.789
			c-2.045,2.365-3.839,6.15-3.353,9.774C29.199,14.838,32.825,12.76,35.03,10.092z"/>
	</g>
	<g>
		<path d="M83.553,44.67h-9.399l-2.256,6.665h-3.982l8.904-24.661h4.136l8.904,24.661h-4.051L83.553,44.67z M75.127,41.594h7.451
			l-3.674-10.818h-0.103L75.127,41.594z"/>
		<path d="M90.733,42.346c0-5.674,3.008-9.28,7.52-9.28c2.581,0,4.632,1.299,5.64,3.281h0.068v-9.672h3.709v24.661h-3.589v-3.059
			h-0.068c-1.06,2.051-3.11,3.366-5.726,3.366C93.741,51.643,90.733,48.02,90.733,42.346z M94.511,42.346
			c0,3.794,1.828,6.169,4.751,6.169c2.837,0,4.733-2.409,4.733-6.169c0-3.726-1.896-6.169-4.733-6.169
			C96.339,36.177,94.511,38.57,94.511,42.346z"/>
		<path d="M117.605,33.033c4.188,0,6.904,2.324,7.024,5.639h-3.47c-0.205-1.742-1.486-2.836-3.555-2.836
			c-1.999,0-3.332,0.974-3.332,2.409c0,1.128,0.82,1.897,2.769,2.341l2.922,0.667c3.675,0.854,5.076,2.29,5.076,4.888
			c0,3.281-3.06,5.537-7.298,5.537c-4.494,0-7.194-2.205-7.536-5.623h3.657c0.342,1.881,1.623,2.803,3.879,2.803
			c2.222,0,3.589-0.922,3.589-2.393c0-1.162-0.666-1.846-2.632-2.289l-2.922-0.684c-3.418-0.787-5.11-2.428-5.11-5.042
			C110.667,35.237,113.47,33.033,117.605,33.033z"/>
		<path d="M143.993,26.675c4.785,0,8.117,3.298,8.117,8.1c0,4.82-3.4,8.135-8.237,8.135h-5.298v8.426h-3.828V26.675H143.993z
			 M138.575,39.697h4.393c3.332,0,5.229-1.794,5.229-4.904s-1.897-4.888-5.213-4.888h-4.409V39.697z"/>
		<path d="M153.213,46.226c0-3.145,2.41-5.076,6.683-5.315l4.922-0.29v-1.385c0-2-1.351-3.195-3.606-3.195
			c-2.136,0-3.469,1.025-3.794,2.631h-3.486c0.205-3.246,2.974-5.639,7.417-5.639c4.358,0,7.144,2.307,7.144,5.912v12.391h-3.537
			v-2.957h-0.086c-1.042,2-3.315,3.265-5.674,3.265C155.674,51.643,153.213,49.455,153.213,46.226z M164.817,44.602v-1.419
			l-4.427,0.273c-2.204,0.154-3.452,1.129-3.452,2.666c0,1.572,1.299,2.598,3.281,2.598
			C162.801,48.72,164.817,46.943,164.817,44.602z"/>
		<path d="M172.553,33.357h3.521v3.059h0.086c0.598-2.102,2.204-3.35,4.323-3.35c0.53,0,0.991,0.086,1.265,0.137v3.436
			c-0.29-0.119-0.939-0.205-1.657-0.205c-2.376,0-3.846,1.59-3.846,4.136v10.767h-3.691V33.357z"/>
		<path d="M189.978,29.101v4.255h3.418v2.922h-3.418v9.912c0,1.556,0.684,2.256,2.188,2.256c0.376,0,0.975-0.033,1.214-0.085v2.923
			c-0.41,0.102-1.23,0.17-2.051,0.17c-3.641,0-5.059-1.384-5.059-4.854V36.279h-2.615v-2.922h2.615v-4.255H189.978z"/>
		<path d="M197.296,33.357h3.521v3.008h0.085c0.975-2.051,2.889-3.315,5.657-3.315c3.965,0,6.237,2.529,6.237,6.647v11.639h-3.708
			v-10.92c0-2.701-1.265-4.188-3.828-4.188c-2.598,0-4.272,1.846-4.272,4.631v10.477h-3.691V33.357z"/>
		<path d="M232.221,46.054c-0.513,3.281-3.623,5.623-7.741,5.623c-5.281,0-8.477-3.572-8.477-9.246c0-5.639,3.247-9.398,8.322-9.398
			c4.99,0,8.101,3.52,8.101,8.972v1.265h-12.697v0.223c0,3.127,1.88,5.195,4.836,5.195c2.103,0,3.657-1.061,4.153-2.633H232.221z
			 M219.745,40.689h8.989c-0.085-2.752-1.828-4.684-4.409-4.684C221.745,36.005,219.934,37.971,219.745,40.689z"/>
		<path d="M236.015,33.357h3.521v3.059h0.086c0.598-2.102,2.204-3.35,4.323-3.35c0.53,0,0.991,0.086,1.265,0.137v3.436
			c-0.29-0.119-0.939-0.205-1.657-0.205c-2.376,0-3.846,1.59-3.846,4.136v10.767h-3.691V33.357z"/>
	</g>
</g>
</svg>
